<svg xmlns="http://www.w3.org/2000/svg" xmlns:xlink="http://www.w3.org/1999/xlink" viewBox="0 0 512 512" width="512" height="512" style="width: 100%; height: 100%; transform: translate3d(0px, 0px, 0px);" preserveAspectRatio="xMidYMid meet"><defs><clipPath id="__lottie_element_2"><rect width="512" height="512" x="0" y="0"/></clipPath><clipPath id="__lottie_element_4"><path d="M0,0 L100,0 L100,100 L0,100z"/></clipPath></defs><g clip-path="url(#__lottie_element_2)"><g clip-path="url(#__lottie_element_4)" style="display: block;" transform="matrix(5.119999885559082,0,0,5.119999885559082,0,0)" opacity="1"><g style="display: block;" transform="matrix(1,0,0,1,0,0)" opacity="1"><g opacity="1" transform="matrix(1,0,0,1,0,0)"><path fill-rule="evenodd" fill="rgb(255,255,255)" fill-opacity="1" d=" M50,15 C30.670000076293945,15 15,30.670000076293945 15,50 C15,69.33000183105469 30.670000076293945,85 50,85 C69.33000183105469,85 85,69.33000183105469 85,50 C85,30.670000076293945 69.33000183105469,15 50,15 C50,15 50,15 50,15z M20,50 C20,66.56900024414062 33.43199920654297,80 50,80 C66.56900024414062,80 80,66.56900024414062 80,50 C80,33.43199920654297 66.56900024414062,20 50,20 C33.43199920654297,20 20,33.43199920654297 20,50 C20,50 20,50 20,50z"/></g><g opacity="1" transform="matrix(1,0,0,1,0,0)"><path stroke-linecap="round" stroke-linejoin="round" fill-opacity="0" stroke="rgb(255,255,255)" stroke-opacity="1" stroke-width="5" d=" M64.37699890136719,40.27199935913086 C64.37699890136719,40.27199935913086 46.00299835205078,61.72800064086914 46.00299835205078,61.72800064086914 C46.00299835205078,61.72800064086914 37.62300109863281,52.15999984741211 37.62300109863281,52.15999984741211"/></g></g></g></g></svg>