<svg xmlns="http://www.w3.org/2000/svg" xmlns:xlink="http://www.w3.org/1999/xlink" viewBox="0 0 512 512" width="512" height="512" style="width: 100%; height: 100%; transform: translate3d(0px, 0px, 0px);" preserveAspectRatio="xMidYMid meet"><defs><clipPath id="__lottie_element_2"><rect width="512" height="512" x="0" y="0"/></clipPath><clipPath id="__lottie_element_4"><path d="M0,0 L100,0 L100,100 L0,100z"/></clipPath></defs><g clip-path="url(#__lottie_element_2)"><g clip-path="url(#__lottie_element_4)" style="display: block;" transform="matrix(5.119999885559082,0,0,5.119999885559082,0,0)" opacity="1"><g style="display: block;" transform="matrix(1,0,0,1,0,0)" opacity="1"><g opacity="1" transform="matrix(1,0,0,1,0,0)"><path fill-rule="evenodd" fill="rgb(255,255,255)" fill-opacity="1" d=" M67.7229995727539,59.9379997253418 C67.7229995727539,64.25809478759766 64.16809844970703,67.81300354003906 59.847999572753906,67.81300354003906 C55.52790451049805,67.81300354003906 51.972999572753906,64.25809478759766 51.972999572753906,59.9379997253418 C51.972999572753906,55.61790466308594 55.52790451049805,52.0629997253418 59.847999572753906,52.0629997253418 C64.16809844970703,52.0629997253418 67.7229995727539,55.61790466308594 67.7229995727539,59.9379997253418 C67.7229995727539,59.9379997253418 67.7229995727539,59.9379997253418 67.7229995727539,59.9379997253418z M63.222999572753906,59.9379997253418 C63.222999572753906,61.78947067260742 61.69947052001953,63.3129997253418 59.847999572753906,63.3129997253418 C57.99652862548828,63.3129997253418 56.472999572753906,61.78947067260742 56.472999572753906,59.9379997253418 C56.472999572753906,58.08652877807617 57.99652862548828,56.5629997253418 59.847999572753906,56.5629997253418 C61.69947052001953,56.5629997253418 63.222999572753906,58.08652877807617 63.222999572753906,59.9379997253418 C63.222999572753906,59.9379997253418 63.222999572753906,59.9379997253418 63.222999572753906,59.9379997253418z M59.847999572753906,48.125 C64.16809844970703,48.125 67.7229995727539,44.570098876953125 67.7229995727539,40.25 C67.7229995727539,35.929901123046875 64.16809844970703,32.375 59.847999572753906,32.375 C55.52790451049805,32.375 51.972999572753906,35.929901123046875 51.972999572753906,40.25 C51.972999572753906,44.570098876953125 55.52790451049805,48.125 59.847999572753906,48.125 C59.847999572753906,48.125 59.847999572753906,48.125 59.847999572753906,48.125z M59.847999572753906,43.625 C61.69947052001953,43.625 63.222999572753906,42.101470947265625 63.222999572753906,40.25 C63.222999572753906,38.398529052734375 61.69947052001953,36.875 59.847999572753906,36.875 C57.99652862548828,36.875 56.472999572753906,38.398529052734375 56.472999572753906,40.25 C56.472999572753906,42.101470947265625 57.99652862548828,43.625 59.847999572753906,43.625 C59.847999572753906,43.625 59.847999572753906,43.625 59.847999572753906,43.625z M48.03499984741211,59.9379997253418 C48.03499984741211,64.25809478759766 44.480098724365234,67.81300354003906 40.15999984741211,67.81300354003906 C35.839900970458984,67.81300354003906 32.28499984741211,64.25809478759766 32.28499984741211,59.9379997253418 C32.28499984741211,55.61790466308594 35.839900970458984,52.0629997253418 40.15999984741211,52.0629997253418 C44.480098724365234,52.0629997253418 48.03499984741211,55.61790466308594 48.03499984741211,59.9379997253418 C48.03499984741211,59.9379997253418 48.03499984741211,59.9379997253418 48.03499984741211,59.9379997253418z M43.53499984741211,59.9379997253418 C43.53499984741211,61.78947067260742 42.011470794677734,63.3129997253418 40.15999984741211,63.3129997253418 C38.308528900146484,63.3129997253418 36.78499984741211,61.78947067260742 36.78499984741211,59.9379997253418 C36.78499984741211,58.08652877807617 38.308528900146484,56.5629997253418 40.15999984741211,56.5629997253418 C42.011470794677734,56.5629997253418 43.53499984741211,58.08652877807617 43.53499984741211,59.9379997253418 C43.53499984741211,59.9379997253418 43.53499984741211,59.9379997253418 43.53499984741211,59.9379997253418z M40.15999984741211,48.125 C44.480098724365234,48.125 48.03499984741211,44.570098876953125 48.03499984741211,40.25 C48.03499984741211,35.929901123046875 44.480098724365234,32.375 40.15999984741211,32.375 C35.839900970458984,32.375 32.28499984741211,35.929901123046875 32.28499984741211,40.25 C32.28499984741211,44.570098876953125 35.839900970458984,48.125 40.15999984741211,48.125 C40.15999984741211,48.125 40.15999984741211,48.125 40.15999984741211,48.125z M40.15999984741211,43.625 C42.011470794677734,43.625 43.53499984741211,42.101470947265625 43.53499984741211,40.25 C43.53499984741211,38.398529052734375 42.011470794677734,36.875 40.15999984741211,36.875 C38.308528900146484,36.875 36.78499984741211,38.398529052734375 36.78499984741211,40.25 C36.78499984741211,42.101470947265625 38.308528900146484,43.625 40.15999984741211,43.625 C40.15999984741211,43.625 40.15999984741211,43.625 40.15999984741211,43.625z M43.74399948120117,24.128000259399414 C37.74800109863281,24.128000259399414 35.327999114990234,24.156999588012695 33.433998107910156,24.756000518798828 C29.245763778686523,26.080005645751953 25.956958770751953,29.36806297302246 24.631999969482422,33.555999755859375 C24.033000946044922,35.45100021362305 24.003999710083008,37.87200164794922 24.003999710083008,43.86800003051758 C24.003999710083008,43.86800003051758 24.003999710083008,56.38800048828125 24.003999710083008,56.38800048828125 C24.003999710083008,62.38399887084961 24.034000396728516,64.80400085449219 24.631999969482422,66.697998046875 C25.95648193359375,70.8860855102539 29.24491310119629,74.17451477050781 33.43299865722656,75.4990005493164 C35.327999114990234,76.0989990234375 37.74800109863281,76.12799835205078 43.74399948120117,76.12799835205078 C43.74399948120117,76.12799835205078 56.263999938964844,76.12799835205078 56.263999938964844,76.12799835205078 C62.2599983215332,76.12799835205078 64.68099975585938,76.0979995727539 66.5739974975586,75.4990005493164 C70.76223754882812,74.17499542236328 74.05104064941406,70.88693237304688 75.3759994506836,66.6989974975586 C75.9749984741211,64.80400085449219 76.00399780273438,62.38399887084961 76.00399780273438,56.38800048828125 C76.00399780273438,56.38800048828125 76.00399780273438,43.86800003051758 76.00399780273438,43.86800003051758 C76.00399780273438,37.87099838256836 75.9739990234375,35.45100021362305 75.3759994506836,33.55699920654297 C74.05152130126953,29.368913650512695 70.7630844116211,26.080482482910156 66.57499694824219,24.756000518798828 C64.68099975585938,24.1560001373291 62.2599983215332,24.128000259399414 56.26499938964844,24.128000259399414 C56.26499938964844,24.128000259399414 43.744998931884766,24.128000259399414 43.744998931884766,24.128000259399414 C43.744998931884766,24.128000259399414 43.74399948120117,24.128000259399414 43.74399948120117,24.128000259399414z M43.222999572753906,19.128000259399414 C43.222999572753906,19.128000259399414 56.784000396728516,19.128000259399414 56.784000396728516,19.128000259399414 C62.09199905395508,19.12700080871582 65.3550033569336,19.125999450683594 68.08200073242188,19.988000869750977 C73.82168579101562,21.80320167541504 78.32827758789062,26.310161590576172 80.14299774169922,32.04999923706055 C81.00599670410156,34.777000427246094 81.00499725341797,38.040000915527344 81.00399780273438,43.347999572753906 C81.00399780273438,43.347999572753906 81.00399780273438,56.909000396728516 81.00399780273438,56.909000396728516 C81.00499725341797,62.21699905395508 81.00599670410156,65.47899627685547 80.14299774169922,68.20700073242188 C78.32791900634766,73.94584655761719 73.82184600830078,78.45191955566406 68.08300018310547,80.26699829101562 C65.3550033569336,81.12999725341797 62.09299850463867,81.12999725341797 56.78499984741211,81.12899780273438 C56.78499984741211,81.12899780273438 43.222999572753906,81.12899780273438 43.222999572753906,81.12899780273438 C37.91600036621094,81.12899780273438 34.65299987792969,81.12999725341797 31.926000595092773,80.26799774169922 C26.187156677246094,78.45291900634766 21.681079864501953,73.94684600830078 19.865999221801758,68.20800018310547 C19.003000259399414,65.4800033569336 19.003000259399414,62.21699905395508 19.003999710083008,56.909000396728516 C19.003999710083008,56.909000396728516 19.003999710083008,43.34700012207031 19.003999710083008,43.34700012207031 C19.003999710083008,38.03900146484375 19.003000259399414,34.777000427246094 19.864999771118164,32.04899978637695 C21.68008041381836,26.310155868530273 26.186155319213867,21.804080963134766 31.924999237060547,19.98900032043457 C34.65299987792969,19.125999450683594 37.915000915527344,19.12700080871582 43.222999572753906,19.128000259399414 C43.222999572753906,19.128000259399414 43.222999572753906,19.128000259399414 43.222999572753906,19.128000259399414z"/></g></g></g></g></svg>