<svg xmlns="http://www.w3.org/2000/svg" xmlns:xlink="http://www.w3.org/1999/xlink" viewBox="0 0 512 512" width="512" height="512" style="width: 100%; height: 100%; transform: translate3d(0px, 0px, 0px);" preserveAspectRatio="xMidYMid meet"><defs><clipPath id="__lottie_element_2"><rect width="512" height="512" x="0" y="0"/></clipPath><clipPath id="__lottie_element_4"><path d="M0,0 L101,0 L101,100 L0,100z"/></clipPath></defs><g clip-path="url(#__lottie_element_2)"><g clip-path="url(#__lottie_element_4)" style="display: block;" transform="matrix(5.06930685043335,0,0,5.06930685043335,0,2.534653425216675)" opacity="1"><g style="display: block;" transform="matrix(1,0,0,1,0,0)" opacity="1"><g opacity="1" transform="matrix(1,0,0,1,0,0)"><path fill-rule="evenodd" fill="rgb(255,255,255)" fill-opacity="1" d=" M78.80799865722656,70.81300354003906 C79.62401580810547,69.71062469482422 79.38838195800781,68.13201904296875 78.28600311279297,67.31600189208984 C77.18362426757812,66.49998474121094 75.60501861572266,66.7356185913086 74.78900146484375,67.83799743652344 C73.01136016845703,70.23948669433594 70.88719940185547,72.36397552490234 68.48600006103516,74.14199829101562 C67.3722915649414,74.94235229492188 67.11444091796875,76.51737976074219 67.914794921875,77.63108825683594 C68.71514892578125,78.74478912353516 70.34729766845703,78.9603500366211 71.46099853515625,78.16000366210938 C74.2599105834961,76.0879135131836 76.73590850830078,73.61190795898438 78.80799865722656,70.81300354003906 C78.80799865722656,70.81300354003906 78.80799865722656,70.81300354003906 78.80799865722656,70.81300354003906z M85.27999877929688,44.80500030517578 C85.078125,43.4483528137207 83.79564666748047,42.49811935424805 82.43900299072266,42.70000076293945 C81.08235168457031,42.901878356933594 80.13211822509766,44.18435287475586 80.33399963378906,45.54100036621094 C80.773681640625,48.49738693237305 80.773681640625,51.50261306762695 80.33399963378906,54.45899963378906 C80.13211822509766,55.81564712524414 81.08235168457031,57.098121643066406 82.43900299072266,57.29999923706055 C83.79564666748047,57.50188064575195 85.07811737060547,56.5516471862793 85.27999877929688,55.19499969482422 C85.79183197021484,51.75060272216797 85.79183197021484,48.24939727783203 85.27999877929688,44.80500030517578 C85.27999877929688,44.80500030517578 85.27999877929688,44.80500030517578 85.27999877929688,44.80500030517578z M71.46099853515625,21.84000015258789 C70.37049865722656,21.00831413269043 68.78877258300781,21.221290588378906 67.95708465576172,22.311796188354492 C67.12540435791016,23.402299880981445 67.39549255371094,25.02631378173828 68.48600006103516,25.857999801635742 C70.88716888427734,27.635671615600586 73.0113296508789,29.75983238220215 74.78900146484375,32.1609992980957 C75.61054229736328,33.246299743652344 77.17521667480469,33.47141647338867 78.26940155029297,32.661739349365234 C79.36357879638672,31.85206413269043 79.60572052001953,30.28993034362793 78.80799865722656,29.187000274658203 C76.73588562011719,26.38810920715332 74.2598876953125,23.912111282348633 71.46099853515625,21.84000015258789 C71.46099853515625,21.84000015258789 71.46099853515625,21.84000015258789 71.46099853515625,21.84000015258789z M49.87300109863281,19.9950008392334 C51.62360763549805,19.949718475341797 53.374847412109375,20.05645179748535 55.106998443603516,20.31399917602539 C56.463645935058594,20.515878677368164 57.74612045288086,19.56564712524414 57.948001861572266,18.208999633789062 C58.149879455566406,16.852352142333984 57.19964599609375,15.569878578186035 55.84299850463867,15.368000030517578 C53.8321647644043,15.06920051574707 51.79926681518555,14.94473648071289 49.766998291015625,14.996000289916992 C40.74800109863281,15.218000411987305 32.57500076293945,18.85099983215332 26.48900032043457,24.65399932861328 C26.02400016784668,25.097000122070312 25.570999145507812,25.554000854492188 25.131000518798828,26.02199935913086 C19.336999893188477,32.185001373291016 15.75100040435791,40.448001861572266 15.63599967956543,49.547000885009766 C15.62997817993164,49.9913444519043 15.632644653320312,50.435760498046875 15.644000053405762,50.880001068115234 C15.843175888061523,59.2799186706543 19.07082176208496,67.33145141601562 24.729000091552734,73.54299926757812 C25.59540557861328,74.49626922607422 26.513450622558594,75.40129852294922 27.479000091552734,76.25399780273438 C33.86806106567383,81.90921020507812 42.115631103515625,85.02754974365234 50.64799880981445,85.01399993896484 C52.4109992980957,85.01399993896484 54.145999908447266,84.88400268554688 55.84299850463867,84.63200378417969 C57.19964599609375,84.43012237548828 58.149879455566406,83.14764404296875 57.948001861572266,81.79100036621094 C57.74612045288086,80.4343490600586 56.463645935058594,79.48412322998047 55.106998443603516,79.68599700927734 C53.11892318725586,79.98182678222656 51.1063232421875,80.0789794921875 49.0989990234375,79.97599792480469 C42.17805862426758,79.62809753417969 35.58881378173828,76.88461303710938 30.465999603271484,72.21800231933594 C29.654014587402344,71.47953796386719 28.882869720458984,70.69738006591797 28.1560001373291,69.875 C23.29977035522461,64.39665985107422 20.621116638183594,57.320865631103516 20.631999969482422,50 C20.619321823120117,41.71278762817383 24.051660537719727,33.78216552734375 30.101999282836914,28.118999481201172 C35.46470642089844,23.06953239440918 42.50835418701172,20.17511558532715 49.87200164794922,19.9950008392334 C49.87200164794922,19.9950008392334 49.87300109863281,19.9950008392334 49.87300109863281,19.9950008392334z"/></g><g opacity="1" transform="matrix(1,0,0,1,0,0)"><path stroke-linecap="round" stroke-linejoin="round" fill-opacity="0" stroke="rgb(255,255,255)" stroke-opacity="1" stroke-width="5" d=" M50.85200119018555,50 C50.85200119018555,50 50.85200119018555,36 50.85200119018555,36 M50.85200119018555,50 C50.85200119018555,50 50.85200119018555,64 50.85200119018555,64 M64.85199737548828,50 C64.85199737548828,50 50.85200119018555,50 50.85200119018555,50 M36.85200119018555,50 C36.85200119018555,50 50.85200119018555,50 50.85200119018555,50"/></g></g></g></g></svg>