<svg xmlns="http://www.w3.org/2000/svg" xmlns:xlink="http://www.w3.org/1999/xlink" viewBox="0 0 512 512" width="512" height="512" preserveAspectRatio="xMidYMid meet" style="width: 100%; height: 100%; transform: translate3d(0px, 0px, 0px); content-visibility: visible;"><defs><clipPath id="__lottie_element_2"><rect width="512" height="512" x="0" y="0"/></clipPath><clipPath id="__lottie_element_4"><path d="M0,0 L100,0 L100,101 L0,101z"/></clipPath></defs><g clip-path="url(#__lottie_element_2)"><g clip-path="url(#__lottie_element_4)" transform="matrix(5.06930685043335,0,0,5.06930685043335,2.534653425216675,0)" opacity="1" style="display: block;"><g transform="matrix(1,0,0,1,0,0)" opacity="1" style="display: block;"><g opacity="1" transform="matrix(1,0,0,1,0,0)"><path fill-rule="evenodd" fill="rgb(255,255,255)" fill-opacity="1" d=" M42.89699935913086,64.38999938964844 C41.83584213256836,65.18408966064453 40.309085845947266,64.96415710449219 39.51499938964844,63.90299987792969 C39.51499938964844,63.90299987792969 31.849000930786133,53.65999984741211 31.849000930786133,53.65999984741211 C31.0549259185791,52.5987663269043 31.274765014648438,51.07207489013672 32.33599853515625,50.27799987792969 C33.39723587036133,49.483924865722656 34.92392349243164,49.703765869140625 35.71799850463867,50.76499938964844 C35.71799850463867,50.76499938964844 43.38399887084961,61.00699996948242 43.38399887084961,61.00699996948242 C44.178436279296875,62.067893981933594 43.95789337158203,63.59556198120117 42.89699935913086,64.38999938964844 C42.89699935913086,64.38999938964844 42.89699935913086,64.38999938964844 42.89699935913086,64.38999938964844z M69.85800170898438,42.31399917602539 C70.69558715820312,41.29582214355469 70.55300903320312,39.7703971862793 69.5412368774414,38.92507553100586 C68.52947235107422,38.07975387573242 67.00300598144531,38.2107048034668 66.1500015258789,39.215999603271484 C66.1500015258789,39.215999603271484 50.72800064086914,57.678001403808594 50.72800064086914,57.678001403808594 C50.72800064086914,57.678001403808594 44.59299850463867,49.332000732421875 44.59299850463867,49.332000732421875 C43.80797576904297,48.26390838623047 42.2830924987793,48.030975341796875 41.21500015258789,48.816001892089844 C40.146907806396484,49.60102462768555 39.91397476196289,51.12590789794922 40.69900131225586,52.194000244140625 C40.69900131225586,52.194000244140625 48.57699966430664,62.90999984741211 48.57699966430664,62.90999984741211 C49.53602600097656,64.21452331542969 51.51313400268555,64.27571868896484 52.55099868774414,63.03300094604492 C52.55099868774414,63.03300094604492 69.85800170898438,42.3129997253418 69.85800170898438,42.3129997253418 C69.85800170898438,42.3129997253418 69.85800170898438,42.31399917602539 69.85800170898438,42.31399917602539z M48.59600067138672,83.06099700927734 C48.557044982910156,81.67619323730469 49.664207458496094,80.50448608398438 51.04899978637695,80.46499633789062 C58.7490119934082,80.25147247314453 66.07994079589844,77.08656311035156 71.51599884033203,71.62899780273438 C83.26899719238281,59.875999450683594 83.31199645996094,40.89899826049805 71.65599822998047,29.243999481201172 C60.000999450683594,17.589000701904297 41.025001525878906,17.631000518798828 29.27199935913086,29.384000778198242 C18.142000198364258,40.51300048828125 17.86199951171875,57.810001373291016 27.892000198364258,69.54000091552734 C27.888999938964844,69.53700256347656 27.893999099731445,69.54399871826172 27.913999557495117,69.56500244140625 C27.913999557495117,69.56500244140625 27.94700050354004,69.60099792480469 27.94700050354004,69.60099792480469 C27.94700050354004,69.60099792480469 27.98699951171875,69.6449966430664 27.98699951171875,69.6449966430664 C27.98699951171875,69.6449966430664 28.235000610351562,69.90799713134766 28.235000610351562,69.90799713134766 C28.437999725341797,70.12100219726562 28.70199966430664,70.3949966430664 29.011999130249023,70.71299743652344 C29.628999710083008,71.3489990234375 30.409000396728516,72.14399719238281 31.194000244140625,72.94100189208984 C31.194000244140625,72.94100189208984 32.45000076293945,74.21399688720703 32.45000076293945,74.21399688720703 C32.45000076293945,74.21399688720703 35.93600082397461,70.71600341796875 35.93600082397461,70.71600341796875 C36.968589782714844,69.67929077148438 38.83641815185547,70.32664489746094 39.00600051879883,71.77999877929688 C39.00600051879883,71.77999877929688 40.43000030517578,84.0199966430664 40.43000030517578,84.0199966430664 C40.51961135864258,84.79234313964844 39.83799362182617,85.45794677734375 39.06800079345703,85.3499984741211 C39.06800079345703,85.3499984741211 25.916000366210938,83.49800109863281 25.916000366210938,83.49800109863281 C24.9623966217041,83.3647689819336 24.551454544067383,82.13915252685547 25.23200035095215,81.45800018310547 C25.23200035095215,81.45800018310547 28.884000778198242,77.79299926757812 28.884000778198242,77.79299926757812 C26.972999572753906,75.85900115966797 24.468000411987305,73.31099700927734 24.052000045776367,72.822998046875 C12.371999740600586,59.1619987487793 12.638999938964844,38.87300109863281 25.700000762939453,25.812999725341797 C39.404998779296875,12.107999801635742 61.58000183105469,12.024999618530273 75.22799682617188,25.67300033569336 C88.87699890136719,39.321998596191406 88.79399871826172,61.49700164794922 75.08799743652344,75.2020034790039 C68.73992919921875,81.57174682617188 60.18138885498047,85.26578521728516 51.19200134277344,85.51599884033203 C49.806827545166016,85.55494689941406 48.63494873046875,84.44717407226562 48.59600067138672,83.06199645996094 C48.59600067138672,83.06199645996094 48.59600067138672,83.06099700927734 48.59600067138672,83.06099700927734z"/></g></g></g></g></svg>