<svg xmlns="http://www.w3.org/2000/svg" xmlns:xlink="http://www.w3.org/1999/xlink" viewBox="0 0 512 512" width="512" height="512" style="width: 100%; height: 100%; transform: translate3d(0px, 0px, 0px);" preserveAspectRatio="xMidYMid meet"><defs><clipPath id="__lottie_element_2"><rect width="512" height="512" x="0" y="0"/></clipPath><clipPath id="__lottie_element_4"><path d="M0,0 L100,0 L100,100 L0,100z"/></clipPath></defs><g clip-path="url(#__lottie_element_2)"><g clip-path="url(#__lottie_element_4)" style="display: block;" transform="matrix(5.119999885559082,0,0,5.119999885559082,0,0)" opacity="1"><g style="display: block;" transform="matrix(1,0,0,1,0,0)" opacity="1"><g opacity="1" transform="matrix(1,0,0,1,0,0)"><path stroke-linecap="round" stroke-linejoin="round" fill-opacity="0" stroke="rgb(255,255,255)" stroke-opacity="1" stroke-width="5" d=" M60.6870002746582,78.5 C60.6870002746582,78.5 67.2300033569336,78.5 67.2300033569336,78.5 C71.21600341796875,78.5 73.20999908447266,78.5 74.72699737548828,77.71199798583984 C76.00528717041016,77.0479736328125 77.0479736328125,76.00528717041016 77.71199798583984,74.72699737548828 C78.5,73.20999908447266 78.5,71.21700286865234 78.5,67.2300033569336 C78.5,67.2300033569336 78.5,60.6879997253418 78.5,60.6879997253418 M21.5,60.6879997253418 C21.5,60.6879997253418 21.5,67.2300033569336 21.5,67.2300033569336 C21.5,71.21600341796875 21.5,73.20999908447266 22.288000106811523,74.72699737548828 C22.952028274536133,76.00528717041016 23.994714736938477,77.0479736328125 25.273000717163086,77.71199798583984 C26.790000915527344,78.5 28.783000946044922,78.5 32.77000045776367,78.5 C32.77000045776367,78.5 39.3129997253418,78.5 39.3129997253418,78.5 M60.6879997253418,21.5 C60.6879997253418,21.5 67.2300033569336,21.5 67.2300033569336,21.5 C71.21600341796875,21.5 73.20999908447266,21.5 74.72699737548828,22.288000106811523 C76.00528717041016,22.952028274536133 77.0479736328125,23.994714736938477 77.71199798583984,25.273000717163086 C78.5,26.790000915527344 78.5,28.783000946044922 78.5,32.77000045776367 C78.5,32.77000045776367 78.5,39.3129997253418 78.5,39.3129997253418 M39.3129997253418,21.5 C39.3129997253418,21.5 32.77000045776367,21.5 32.77000045776367,21.5 C28.784000396728516,21.5 26.790000915527344,21.5 25.273000717163086,22.288000106811523 C23.994714736938477,22.952028274536133 22.952028274536133,23.994714736938477 22.288000106811523,25.273000717163086 C21.5,26.790000915527344 21.5,28.783000946044922 21.5,32.77000045776367 C21.5,32.77000045776367 21.5,39.3129997253418 21.5,39.3129997253418"/></g><g opacity="1" transform="matrix(1,0,0,1,0,0)"><path fill-rule="evenodd" fill="rgb(255,255,255)" fill-opacity="1" d=" M34.51599884033203,60.3129997253418 C33.28168487548828,60.3129997253418 32.26599884033203,61.32868576049805 32.26599884033203,62.5629997253418 C32.26599884033203,63.79731369018555 33.28168487548828,64.81300354003906 34.51599884033203,64.81300354003906 C34.51599884033203,64.81300354003906 53.01599884033203,64.81300354003906 53.01599884033203,64.81300354003906 C54.25031280517578,64.81300354003906 55.26599884033203,63.79731369018555 55.26599884033203,62.5629997253418 C55.26599884033203,61.32868576049805 54.25031280517578,60.3129997253418 53.01599884033203,60.3129997253418 C53.01599884033203,60.3129997253418 34.51599884033203,60.3129997253418 34.51599884033203,60.3129997253418 C34.51599884033203,60.3129997253418 34.51599884033203,60.3129997253418 34.51599884033203,60.3129997253418z M32.23400115966797,50 C32.23400115966797,48.76568603515625 33.24968719482422,47.75 34.48400115966797,47.75 C34.48400115966797,47.75 65.5469970703125,47.75 65.5469970703125,47.75 C66.78131103515625,47.75 67.7969970703125,48.76568603515625 67.7969970703125,50 C67.7969970703125,51.23431396484375 66.78131103515625,52.25 65.5469970703125,52.25 C65.5469970703125,52.25 34.48400115966797,52.25 34.48400115966797,52.25 C33.24968719482422,52.25 32.23400115966797,51.23431396484375 32.23400115966797,50 C32.23400115966797,50 32.23400115966797,50 32.23400115966797,50z M32.202999114990234,37.4379997253418 C32.202999114990234,36.20368576049805 33.218685150146484,35.1879997253418 34.452999114990234,35.1879997253418 C34.452999114990234,35.1879997253418 65.51599884033203,35.1879997253418 65.51599884033203,35.1879997253418 C66.75031280517578,35.1879997253418 67.76599884033203,36.20368576049805 67.76599884033203,37.4379997253418 C67.76599884033203,38.67231369018555 66.75031280517578,39.6879997253418 65.51599884033203,39.6879997253418 C65.51599884033203,39.6879997253418 34.452999114990234,39.6879997253418 34.452999114990234,39.6879997253418 C33.218685150146484,39.6879997253418 32.202999114990234,38.67231369018555 32.202999114990234,37.4379997253418 C32.202999114990234,37.4379997253418 32.202999114990234,37.4379997253418 32.202999114990234,37.4379997253418z"/></g></g></g></g></svg>