<?xml version="1.0" encoding="UTF-8"?>
<svg id="Layer_1" data-name="Layer 1" xmlns="http://www.w3.org/2000/svg" xmlns:xlink="http://www.w3.org/1999/xlink" viewBox="0 0 512 512">
  <defs>
    <style>
      .cls-1 {
        fill: #f3c04b;
        stroke: #f3c04b;
        stroke-linecap: round;
        stroke-linejoin: round;
        stroke-width: 25.6px;
      }

      .cls-2 {
        clip-path: url(#clippath-1);
      }

      .cls-3 {
        clip-path: url(#clippath);
      }

      .cls-4 {
        fill: none;
      }
    </style>
    <clipPath id="clippath">
      <rect class="cls-4" width="512" height="512"/>
    </clipPath>
    <clipPath id="clippath-1">
      <rect class="cls-4" width="512" height="512"/>
    </clipPath>
  </defs>
  <g class="cls-3">
    <g class="cls-2">
      <path class="cls-1" d="m206.17,197.66h-98.22c-9.92,0-14.04,12.7-6.02,18.52l79.46,57.73c3.58,2.6,5.08,7.24,3.72,11.45l-30.35,93.41c-3.06,9.44,7.73,17.28,15.76,11.45l79.46-57.73c3.58-2.6,8.45-2.6,12.03,0l79.46,57.73c8.02,5.83,18.82-2.02,15.75-11.45l-30.35-93.4c-1.37-4.21.14-8.85,3.72-11.45l79.46-57.73c8.02-5.83,3.9-18.52-6.02-18.52h-98.22c-4.42,0-8.37-2.87-9.74-7.08l-30.35-93.4c-3.07-9.43-16.41-9.43-19.48,0l-30.35,93.4c-1.37,4.21-5.31,7.08-9.74,7.08h0Z"/>
    </g>
  </g>
</svg>