<svg xmlns="http://www.w3.org/2000/svg" xmlns:xlink="http://www.w3.org/1999/xlink" viewBox="0 0 512 512" width="512" height="512" style="width: 100%; height: 100%; transform: translate3d(0px, 0px, 0px);" preserveAspectRatio="xMidYMid meet"><defs><clipPath id="__lottie_element_2"><rect width="512" height="512" x="0" y="0"/></clipPath><clipPath id="__lottie_element_4"><path d="M0,0 L100,0 L100,100 L0,100z"/></clipPath></defs><g clip-path="url(#__lottie_element_2)"><g clip-path="url(#__lottie_element_4)" style="display: block;" transform="matrix(5.119999885559082,0,0,5.119999885559082,0,0)" opacity="1"><g style="display: block;" transform="matrix(1,0,0,1,0,0)" opacity="1"><g opacity="1" transform="matrix(1,0,0,1,0,0)"><path stroke-linecap="round" stroke-linejoin="round" fill-opacity="0" stroke="rgb(255,255,255)" stroke-opacity="1" stroke-width="5" d=" M50.00400161743164,32.21799850463867 C55.62675857543945,32.21799850463867 60.19200134277344,36.783241271972656 60.19200134277344,42.40599822998047 C60.19200134277344,48.02875518798828 55.62675857543945,52.593997955322266 50.00400161743164,52.593997955322266 C44.38124465942383,52.593997955322266 39.816001892089844,48.02875518798828 39.816001892089844,42.40599822998047 C39.816001892089844,36.783241271972656 44.38124465942383,32.21799850463867 50.00400161743164,32.21799850463867z"/></g><g opacity="1" transform="matrix(1,0,0,1,0,0)"><path fill="rgb(255,255,255)" fill-opacity="1" d=" M71.69100189208984,61.625 C77.20999908447266,61.625 81.69100189208984,66.10600280761719 81.69100189208984,71.625 C81.69100189208984,77.14399719238281 77.20999908447266,81.625 71.69100189208984,81.625 C66.17200469970703,81.625 61.691001892089844,77.14399719238281 61.691001892089844,71.625 C61.691001892089844,66.10600280761719 66.17200469970703,61.625 71.69100189208984,61.625z"/></g><g opacity="1" transform="matrix(1,0,0,1,0,0)"><path fill-rule="evenodd" fill="rgb(255,255,255)" fill-opacity="1" d=" M20.503999710083008,50 C20.503999710083008,33.70800018310547 33.71200180053711,20.5 50.00400161743164,20.5 C66.2959976196289,20.5 79.50399780273438,33.70800018310547 79.50399780273438,50 C79.50399780273438,52.79999923706055 79.11399841308594,55.50699996948242 78.38800048828125,58.069000244140625 C79.94586181640625,58.840572357177734 81.3594970703125,59.87432861328125 82.56700134277344,61.125 C82.70099639892578,60.928001403808594 82.80999755859375,60.70899963378906 82.88700103759766,60.46900177001953 C83.9616470336914,57.08342361450195 84.50675201416016,53.55203628540039 84.50299835205078,50 C84.50299835205078,30.945999145507812 69.05699920654297,15.5 50.00299835205078,15.5 C30.948999404907227,15.5 15.503000259399414,30.945999145507812 15.503000259399414,50 C15.503000259399414,69.05400085449219 30.948999404907227,84.5 50.00299835205078,84.5 C53.95600128173828,84.5 57.75899887084961,83.83399963378906 61.301998138427734,82.60600280761719 C60.01183319091797,81.385986328125 58.94594192504883,79.94877624511719 58.15299987792969,78.36000061035156 C55.502899169921875,79.11865234375 52.759552001953125,79.50238800048828 50.00299835205078,79.5 C43.35603332519531,79.5098648071289 36.898563385009766,77.26332092285156 31.69300079345703,73.12999725341797 C35,68.68699645996094 41.770999908447266,65.34400177001953 50.00299835205078,65.34400177001953 C52.70100021362305,65.34400177001953 55.22999954223633,65.6989974975586 57.527000427246094,66.3290023803711 C58.131507873535156,64.71612548828125 59.00749588012695,63.21849060058594 60.117000579833984,61.9010009765625 C56.97200012207031,60.88999938964844 53.53799819946289,60.34400177001953 50.00299835205078,60.34400177001953 C40.89699935913086,60.34400177001953 32.5880012512207,63.928001403808594 28.0310001373291,69.68499755859375 C23.17616844177246,64.28104400634766 20.49321174621582,57.26443862915039 20.503999710083008,50 C20.503999710083008,50 20.503999710083008,50 20.503999710083008,50z"/></g></g></g></g></svg>