<svg xmlns="http://www.w3.org/2000/svg" xmlns:xlink="http://www.w3.org/1999/xlink" viewBox="0 0 512 512" width="512" height="512" preserveAspectRatio="xMidYMid meet" style="width: 100%; height: 100%; transform: translate3d(0px, 0px, 0px); content-visibility: visible;"><defs><clipPath id="__lottie_element_2"><rect width="512" height="512" x="0" y="0"/></clipPath><clipPath id="__lottie_element_4"><path d="M0,0 L100,0 L100,100 L0,100z"/></clipPath></defs><g clip-path="url(#__lottie_element_2)"><g clip-path="url(#__lottie_element_4)" transform="matrix(5.119999885559082,0,0,5.119999885559082,0,0)" opacity="1" style="display: block;"><g transform="matrix(1,0,0,1,0,0)" opacity="1" style="display: block;"><g opacity="1" transform="matrix(1,0,0,1,0,0)"><path fill-rule="evenodd" fill="rgb(255,255,255)" fill-opacity="1" d=" M50,15 C30.670000076293945,15 15,30.670000076293945 15,50 C15,69.33000183105469 30.670000076293945,85 50,85 C69.33000183105469,85 85,69.33000183105469 85,50 C85,30.670000076293945 69.33000183105469,15 50,15 C50,15 50,15 50,15z M20,50 C20,66.56900024414062 33.43199920654297,80 50,80 C66.56900024414062,80 80,66.56900024414062 80,50 C80,33.43199920654297 66.56900024414062,20 50,20 C33.43199920654297,20 20,33.43199920654297 20,50 C20,50 20,50 20,50z"/></g><g opacity="1" transform="matrix(1,0,0,1,0,0)"><path fill="rgb(255,255,255)" fill-opacity="1" d=" M51.4119987487793,66.49800109863281 C50.742000579833984,67.1510009765625 49.91999816894531,67.47799682617188 48.946998596191406,67.47799682617188 C47.9739990234375,67.47799682617188 47.14500045776367,67.1520004272461 46.45899963378906,66.49800109863281 C45.80491638183594,65.86595916748047 45.440887451171875,64.99047088623047 45.45399856567383,64.08100128173828 C45.45399856567383,63.13999938964844 45.78900146484375,62.34199905395508 46.45899963378906,61.6879997253418 C47.14500045776367,61.034000396728516 47.9739990234375,60.70800018310547 48.946998596191406,60.70800018310547 C49.91999816894531,60.70800018310547 50.742000579833984,61.03499984741211 51.4119987487793,61.6879997253418 C52.067874908447266,62.308837890625 52.43291473388672,63.17802810668945 52.41699981689453,64.08100128173828 C52.41699981689453,65.02200317382812 52.08100128173828,65.8280029296875 51.4119987487793,66.49800109863281 C51.4119987487793,66.49800109863281 51.4119987487793,66.49800109863281 51.4119987487793,66.49800109863281z M48.900001525878906,57.095001220703125 C48.00600051879883,57.095001220703125 47.3120002746582,56.814998626708984 46.81800079345703,56.25699996948242 C46.323001861572266,55.68299865722656 46.07600021362305,54.94900131225586 46.07600021362305,54.05699920654297 C46.07600021362305,54.05699920654297 46.07600021362305,53.60200119018555 46.07600021362305,53.60200119018555 C46.07600021362305,52.150001525878906 46.43600082397461,50.89799880981445 47.15299987792969,49.845001220703125 C47.887001037597656,48.79199981689453 49.01900100708008,47.8120002746582 50.54999923706055,46.902000427246094 C52.04999923706055,45.99300003051758 53.08599853515625,45.15599822998047 53.65999984741211,44.38999938964844 C54.23500061035156,43.60900115966797 54.52199935913086,42.64400100708008 54.52199935913086,41.494998931884766 C54.52199935913086,40.1870002746582 54.058998107910156,39.12699890136719 53.13399887084961,38.3129997253418 C52.20899963378906,37.483001708984375 51.01300048828125,37.069000244140625 49.54499816894531,37.069000244140625 C46.8650016784668,37.069000244140625 45.1349983215332,38.3129997253418 44.35300064086914,40.80099868774414 C43.85900115966797,42.18899917602539 42.95000076293945,42.882999420166016 41.625999450683594,42.882999420166016 C40.79600143432617,42.882999420166016 40.1510009765625,42.6510009765625 39.6879997253418,42.18899917602539 C39.224998474121094,41.72600173950195 38.99399948120117,41.0890007019043 38.99399948120117,40.275001525878906 C38.99399948120117,39.2859992980957 39.21699905395508,38.345001220703125 39.66400146484375,37.45199966430664 C40.41400146484375,35.808998107910156 41.68199920654297,34.525001525878906 43.46799850463867,33.599998474121094 C45.255001068115234,32.65800094604492 47.36800003051758,32.1879997253418 49.80799865722656,32.1879997253418 C53.047000885009766,32.1879997253418 55.678001403808594,33.03300094604492 57.70399856567383,34.7239990234375 C59.72999954223633,36.39899826049805 60.74300003051758,38.58399963378906 60.74300003051758,41.279998779296875 C60.74300003051758,44.676998138427734 59.051998138427734,47.380001068115234 55.66999816894531,49.38999938964844 C54.13999938964844,50.284000396728516 53.09400177001953,51.09000015258789 52.5359992980957,51.80699920654297 C51.99399948120117,52.50899887084961 51.67499923706055,53.417999267578125 51.57899856567383,54.53499984741211 C51.32400131225586,56.24100112915039 50.430999755859375,57.095001220703125 48.89899826049805,57.095001220703125 C48.89899826049805,57.095001220703125 48.900001525878906,57.095001220703125 48.900001525878906,57.095001220703125z"/></g></g></g></g></svg>