<svg xmlns="http://www.w3.org/2000/svg" xmlns:xlink="http://www.w3.org/1999/xlink" viewBox="0 0 512 512" width="512" height="512" preserveAspectRatio="xMidYMid meet" style="width: 100%; height: 100%; transform: translate3d(0px, 0px, 0px); content-visibility: visible;"><defs><clipPath id="__lottie_element_2"><rect width="512" height="512" x="0" y="0"/></clipPath><clipPath id="__lottie_element_4"><path d="M0,0 L100,0 L100,101 L0,101z"/></clipPath></defs><g clip-path="url(#__lottie_element_2)"><g clip-path="url(#__lottie_element_4)" transform="matrix(5.06930685043335,0,0,5.06930685043335,2.534653425216675,0)" opacity="1" style="display: block;"><g transform="matrix(1,0,0,1,0,0)" opacity="1" style="display: block;"><g opacity="1" transform="matrix(1,0,0,1,0,0)"><path fill-rule="evenodd" fill="rgb(255,255,255)" fill-opacity="1" d=" M43.24700164794922,25.756000518798828 C42.608001708984375,28.38800048828125 39.59299850463867,29.63800048828125 37.279998779296875,28.229999542236328 C39.59199905395508,29.639999389648438 42.608001708984375,28.38800048828125 43.24700164794922,25.756000518798828 C43.24700164794922,25.756000518798828 43.24700164794922,25.756000518798828 43.24700164794922,25.756000518798828z M62.720001220703125,28.229000091552734 C60.40599822998047,29.638999938964844 57.38999938964844,28.388999938964844 56.750999450683594,25.756000518798828 C57.38999938964844,28.388999938964844 60.40700149536133,29.639999389648438 62.720001220703125,28.229000091552734 C62.720001220703125,28.229000091552734 62.720001220703125,28.229000091552734 62.720001220703125,28.229000091552734z M74.74500274658203,43.749000549316406 C72.11199951171875,43.10900115966797 70.86299896240234,40.09400177001953 72.27100372314453,37.78099822998047 C70.86100006103516,40.09400177001953 72.11100006103516,43.111000061035156 74.74400329589844,43.749000549316406 C74.74400329589844,43.749000549316406 74.74500274658203,43.749000549316406 74.74500274658203,43.749000549316406z M74.74500274658203,57.25400161743164 C72.11199951171875,57.891998291015625 70.86199951171875,60.90800094604492 72.27100372314453,63.22100067138672 C70.86100006103516,60.90800094604492 72.11299896240234,57.89099884033203 74.74500274658203,57.25299835205078 C74.74500274658203,57.25299835205078 74.74500274658203,57.25400161743164 74.74500274658203,57.25400161743164z M56.75400161743164,75.24400329589844 C57.39400100708008,72.61100006103516 60.40999984741211,71.36199951171875 62.7239990234375,72.77300262451172 C60.40999984741211,71.36299896240234 57.391998291015625,72.61100006103516 56.75400161743164,75.24299621582031 C56.75400161743164,75.24299621582031 56.75400161743164,75.24400329589844 56.75400161743164,75.24400329589844z M37.279998779296875,72.77200317382812 C39.59299850463867,71.36199951171875 42.608001708984375,72.61199951171875 43.24800109863281,75.24299621582031 C42.61000061035156,72.61000061035156 39.59299850463867,71.36100006103516 37.279998779296875,72.77200317382812 C37.279998779296875,72.77200317382812 37.279998779296875,72.77200317382812 37.279998779296875,72.77200317382812z M25.2549991607666,57.25199890136719 C26.546545028686523,57.56106185913086 27.60104751586914,58.497188568115234 28.06100082397461,59.74300003051758 C28.49358558654785,60.89130401611328 28.370502471923828,62.17757034301758 27.72800064086914,63.222999572753906 C29.138999938964844,60.909000396728516 27.888999938964844,57.89099884033203 25.2549991607666,57.25299835205078 C25.2549991607666,57.25299835205078 25.2549991607666,57.25199890136719 25.2549991607666,57.25199890136719z M25.256999969482422,43.74700164794922 C27.889999389648438,43.106998443603516 29.138999938964844,40.090999603271484 27.72800064086914,37.777000427246094 C29.13800048828125,40.090999603271484 27.889999389648438,43.10900115966797 25.257999420166016,43.74700164794922 C25.257999420166016,43.74700164794922 25.256999969482422,43.74700164794922 25.256999969482422,43.74700164794922z"/></g><g opacity="1" transform="matrix(1,0,0,1,0,0)"><path stroke-linecap="round" stroke-linejoin="round" fill-opacity="0" stroke="rgb(255,255,255)" stroke-opacity="1" stroke-width="5" d=" M72.2699966430664,37.779998779296875 C72.2699966430664,37.779998779296875 72.27200317382812,37.77799987792969 72.27200317382812,37.77799987792969 C72.27200317382812,37.77799987792969 74.7959976196289,33.63800048828125 74.7959976196289,33.63800048828125 C75.51434326171875,32.459861755371094 75.3316650390625,30.930755615234375 74.35600280761719,29.954999923706055 C74.35600280761719,29.954999923706055 70.5459976196289,26.143999099731445 70.5459976196289,26.143999099731445 C69.5700912475586,25.167829513549805 68.04035949707031,24.985126495361328 66.86199951171875,25.70400047302246 C66.86199951171875,25.70400047302246 62.72200012207031,28.22800064086914 62.72200012207031,28.22800064086914 C62.72200012207031,28.22800064086914 62.72100067138672,28.229000091552734 62.72100067138672,28.229000091552734 M74.74299621582031,43.74800109863281 C72.11100006103516,43.10900115966797 70.86000061035156,40.09299850463867 72.2699966430664,37.779998779296875 M74.74299621582031,43.74800109863281 C72.11100006103516,43.108001708984375 70.86199951171875,40.09299850463867 72.2699966430664,37.779998779296875 M43.24700164794922,75.24199676513672 C43.24700164794922,75.24199676513672 43.24700164794922,75.24400329589844 43.24700164794922,75.24400329589844 C43.24700164794922,75.24400329589844 44.38999938964844,79.95700073242188 44.38999938964844,79.95700073242188 C44.715145111083984,81.29781341552734 45.925323486328125,82.24977111816406 47.30500030517578,82.25 C47.30500030517578,82.25 52.69499969482422,82.25 52.69499969482422,82.25 C54.074676513671875,82.24977111816406 55.284854888916016,81.29781341552734 55.61000061035156,79.95700073242188 C55.61000061035156,79.95700073242188 56.75199890136719,75.24500274658203 56.75199890136719,75.24500274658203 C56.75199890136719,75.24500274658203 56.75199890136719,75.24299621582031 56.75199890136719,75.24299621582031 M37.27899932861328,72.77100372314453 C39.59199905395508,71.36100006103516 42.60900115966797,72.60900115966797 43.24700164794922,75.24199676513672 M37.27899932861328,72.7699966430664 C39.59199905395508,71.36199951171875 42.606998443603516,72.61000061035156 43.24700164794922,75.24199676513672 M33.808998107910156,26.11400032043457 C33.808998107910156,26.11400032043457 37.27799987792969,28.22800064086914 37.27799987792969,28.22800064086914 C37.27799987792969,28.22800064086914 37.28099822998047,28.229999542236328 37.28099822998047,28.229999542236328 M43.24800109863281,25.756000518798828 C42.60900115966797,28.38800048828125 39.59299850463867,29.639999389648438 37.28099822998047,28.229999542236328 M43.24800109863281,25.756000518798828 C42.60900115966797,28.38800048828125 39.59400177001953,29.63800048828125 37.28099822998047,28.229999542236328 M56.75199890136719,25.756000518798828 C57.39099884033203,28.388999938964844 60.40800094604492,29.639999389648438 62.72100067138672,28.229000091552734 M56.75199890136719,25.756000518798828 C57.39099884033203,28.388999938964844 60.40700149536133,29.638999938964844 62.72100067138672,28.229000091552734 M56.75199890136719,25.756000518798828 C56.75199890136719,25.756000518798828 55.61000061035156,21.042999267578125 55.61000061035156,21.042999267578125 C55.28477096557617,19.701828002929688 54.07404327392578,18.749771118164062 52.694000244140625,18.75 C52.694000244140625,18.75 47.30500030517578,18.75 47.30500030517578,18.75 C45.925323486328125,18.75023078918457 44.715145111083984,19.702184677124023 44.38999938964844,21.042999267578125 C44.38999938964844,21.042999267578125 43.24800109863281,25.756000518798828 43.24800109863281,25.756000518798828 M74.74400329589844,57.250999450683594 C72.11199951171875,57.88999938964844 70.86000061035156,60.90599822998047 72.2699966430664,63.21900177001953 M74.74400329589844,57.25199890136719 C72.11100006103516,57.88999938964844 70.86100006103516,60.90599822998047 72.2699966430664,63.21900177001953 M74.74400329589844,57.250999450683594 C74.74400329589844,57.250999450683594 79.45700073242188,56.10900115966797 79.45700073242188,56.10900115966797 C80.79781341552734,55.78385543823242 81.74977111816406,54.573673248291016 81.75,53.194000244140625 C81.75,53.194000244140625 81.75,47.80400085449219 81.75,47.80400085449219 C81.74977111816406,46.42432403564453 80.79781341552734,45.214141845703125 79.45700073242188,44.888999938964844 C79.45700073242188,44.888999938964844 74.74400329589844,43.74700164794922 74.74400329589844,43.74700164794922 M74.38600158691406,66.69000244140625 C74.38600158691406,66.69000244140625 72.27200317382812,63.22100067138672 72.27200317382812,63.22100067138672 C72.27200317382812,63.22100067138672 72.2699966430664,63.21900177001953 72.2699966430664,63.21900177001953 M73.80000305175781,71.5999984741211 C75.100341796875,70.2989273071289 75.34361267089844,68.26055145263672 74.38600158691406,66.69000244140625 M73.80000305175781,71.60299682617188 C75.10083770751953,70.30177307128906 75.3441390991211,68.26277160644531 74.38600158691406,66.69200134277344 M71.10099792480469,74.3010025024414 C71.10099792480469,74.3010025024414 73.80000305175781,71.60299682617188 73.80000305175781,71.60299682617188 M66.19100189208984,74.88800048828125 C67.76177215576172,75.8453598022461 69.80017852783203,75.6016616821289 71.10099792480469,74.3010025024414 M66.19000244140625,74.88800048828125 C67.76099395751953,75.84588623046875 69.8000259399414,75.60216522216797 71.10099792480469,74.3010025024414 M62.72200012207031,72.77300262451172 C60.409000396728516,71.36299896240234 57.39099884033203,72.61100006103516 56.75199890136719,75.24299621582031 M62.72200012207031,72.77300262451172 C60.409000396728516,71.36299896240234 57.391998291015625,72.61100006103516 56.75199890136719,75.24299621582031 M62.72200012207031,72.77200317382812 C62.72200012207031,72.77200317382812 66.19000244140625,74.88800048828125 66.19000244140625,74.88800048828125 M27.72800064086914,63.2239990234375 C27.72800064086914,63.2239990234375 25.20400047302246,67.36299896240234 25.20400047302246,67.36299896240234 C24.485652923583984,68.5411376953125 24.668333053588867,70.07024383544922 25.643999099731445,71.0459976196289 C25.643999099731445,71.0459976196289 29.45400047302246,74.85700225830078 29.45400047302246,74.85700225830078 C30.42991065979004,75.83316802978516 31.95964241027832,76.01587677001953 33.13800048828125,75.2969970703125 C33.13800048828125,75.2969970703125 37.27799987792969,72.77300262451172 37.27799987792969,72.77300262451172 C37.27799987792969,72.77300262451172 37.27899932861328,72.77200317382812 37.27899932861328,72.77200317382812 M25.2549991607666,57.25400161743164 C26.54631805419922,57.5628662109375 27.600772857666016,58.498573303222656 28.06100082397461,59.74399948120117 C28.49358558654785,60.892303466796875 28.370502471923828,62.17856979370117 27.72800064086914,63.2239990234375 M25.2549991607666,57.25400161743164 C27.888999938964844,57.891998291015625 29.138999938964844,60.90999984741211 27.72800064086914,63.2239990234375 M25.2549991607666,57.25400161743164 C25.2549991607666,57.25400161743164 20.542999267578125,56.111000061035156 20.542999267578125,56.111000061035156 C19.202184677124023,55.785858154296875 18.25023078918457,54.57567596435547 18.25,53.19599914550781 C18.25,53.19599914550781 18.25,47.805999755859375 18.25,47.805999755859375 C18.25023078918457,46.426326751708984 19.202184677124023,45.21614456176758 20.542999267578125,44.89099884033203 C20.542999267578125,44.89099884033203 25.2549991607666,43.749000549316406 25.2549991607666,43.749000549316406 C25.2549991607666,43.749000549316406 25.256999969482422,43.749000549316406 25.256999969482422,43.749000549316406 M27.72800064086914,37.77899932861328 C29.13800048828125,40.09199905395508 27.889999389648438,43.11000061035156 25.257999420166016,43.749000549316406 M27.72800064086914,37.77899932861328 C29.13800048828125,40.09199905395508 27.889999389648438,43.10900115966797 25.257999420166016,43.749000549316406 M25.613000869750977,34.310001373291016 C25.613000869750977,34.310001373291016 27.72800064086914,37.77899932861328 27.72800064086914,37.77899932861328 M26.200000762939453,29.399999618530273 C24.899335861206055,30.700822830200195 24.655641555786133,32.739227294921875 25.613000869750977,34.310001373291016 M26.198999404907227,29.399999618530273 C24.89866065979004,30.70107078552246 24.655384063720703,32.73944854736328 25.613000869750977,34.310001373291016 M28.89900016784668,26.701000213623047 C30.200069427490234,25.40066146850586 32.23844528198242,25.157384872436523 33.808998107910156,26.114999771118164 M28.898000717163086,26.701000213623047 C30.1992244720459,25.40015983581543 32.238224029541016,25.156856536865234 33.808998107910156,26.114999771118164 M28.898000717163086,26.700000762939453 C28.898000717163086,26.700000762939453 26.200000762939453,29.399999618530273 26.200000762939453,29.399999618530273"/></g><g opacity="1" transform="matrix(1,0,0,1,0,0)"><path stroke-linecap="round" stroke-linejoin="round" fill-opacity="0" stroke="rgb(255,255,255)" stroke-opacity="1" stroke-width="5" d=" M50,41.5 C55.10507583618164,41.5 59.25,45.64492416381836 59.25,50.75 C59.25,55.85507583618164 55.10507583618164,60 50,60 C44.89492416381836,60 40.75,55.85507583618164 40.75,50.75 C40.75,45.64492416381836 44.89492416381836,41.5 50,41.5z"/></g></g></g></g></svg>