<svg xmlns="http://www.w3.org/2000/svg" xmlns:xlink="http://www.w3.org/1999/xlink" viewBox="0 0 512 512" width="512" height="512" style="width: 100%; height: 100%; transform: translate3d(0px, 0px, 0px);" preserveAspectRatio="xMidYMid meet"><defs><clipPath id="__lottie_element_2"><rect width="512" height="512" x="0" y="0"/></clipPath><clipPath id="__lottie_element_4"><path d="M0,0 L101,0 L101,101 L0,101z"/></clipPath></defs><g clip-path="url(#__lottie_element_2)"><g clip-path="url(#__lottie_element_4)" style="display: block;" transform="matrix(5.06930685043335,0,0,5.06930685043335,0,0)" opacity="1"><g style="display: block;" transform="matrix(1,0,0,1,0,0)" opacity="1"><g opacity="1" transform="matrix(1,0,0,1,0,0)"><path stroke-linecap="round" stroke-linejoin="round" fill-opacity="0" stroke="rgb(255,255,255)" stroke-opacity="1" stroke-width="5" d=" M56.66999816894531,75.33399963378906 C55.503631591796875,76.43373107910156 53.4714241027832,75.55406188964844 53.474998474121094,73.95099639892578 C53.474998474121094,73.95099639892578 53.474998474121094,61.45600128173828 53.474998474121094,61.45600128173828 C39.09199905395508,61.45600128173828 29.124000549316406,65.88600158691406 23.56999969482422,74.73999786376953 C23.56999969482422,74.73999786376953 22.969999313354492,75.73899841308594 22.969999313354492,75.73899841308594 C22.766450881958008,76.09648132324219 22.305700302124023,76.2243881225586 21.94700050354004,76.02300262451172 C21.71817970275879,75.8890380859375 21.575952529907227,75.64413452148438 21.572999954223633,75.37899780273438 C21.22800064086914,51.112998962402344 31.860000610351562,38.981998443603516 53.474998474121094,38.981998443603516 C53.474998474121094,38.981998443603516 53.474998474121094,26.527000427246094 53.474998474121094,26.527000427246094 C53.47454833984375,24.92502784729004 55.5035400390625,24.047025680541992 56.67100143432617,25.143999099731445 C56.67100143432617,25.143999099731445 81.96099853515625,48.83599853515625 81.96099853515625,48.83599853515625 C82.62999725341797,49.46500015258789 82.75,50.45899963378906 82.28500366210938,51.2130012512207 C82.28500366210938,51.2130012512207 81.96499633789062,51.60300064086914 81.96499633789062,51.60300064086914 C81.96499633789062,51.60300064086914 56.67100143432617,75.33399963378906 56.67100143432617,75.33399963378906 C56.67100143432617,75.33399963378906 56.66999816894531,75.33399963378906 56.66999816894531,75.33399963378906z"/></g></g></g></g></svg>