<svg xmlns="http://www.w3.org/2000/svg" xmlns:xlink="http://www.w3.org/1999/xlink" viewBox="0 0 512 512" width="512" height="512" style="width: 100%; height: 100%; transform: translate3d(0px, 0px, 0px);" preserveAspectRatio="xMidYMid meet"><defs><clipPath id="__lottie_element_2"><rect width="512" height="512" x="0" y="0"/></clipPath><clipPath id="__lottie_element_4"><path d="M0,0 L100,0 L100,100 L0,100z"/></clipPath></defs><g clip-path="url(#__lottie_element_2)"><g clip-path="url(#__lottie_element_4)" style="display: block;" transform="matrix(5.119999885559082,0,0,5.119999885559082,0,0)" opacity="1"><g style="display: block;" transform="matrix(1,0,0,1,0,0)" opacity="1"><g opacity="1" transform="matrix(1,0,0,1,0,0)"><path fill-rule="evenodd" fill="rgb(255,255,255)" fill-opacity="1" d=" M35.6879997253418,66.56300354003906 C34.3165397644043,66.56300354003906 33.1879997253418,67.69154357910156 33.1879997253418,69.06300354003906 C33.1879997253418,70.43445587158203 34.3165397644043,71.56300354003906 35.6879997253418,71.56300354003906 C35.6879997253418,71.56300354003906 78.56300354003906,71.56300354003906 78.56300354003906,71.56300354003906 C79.93445587158203,71.56300354003906 81.06300354003906,70.43445587158203 81.06300354003906,69.06300354003906 C81.06300354003906,67.69154357910156 79.93445587158203,66.56300354003906 78.56300354003906,66.56300354003906 C78.56300354003906,66.56300354003906 35.6879997253418,66.56300354003906 35.6879997253418,66.56300354003906 C35.6879997253418,66.56300354003906 35.6879997253418,66.56300354003906 35.6879997253418,66.56300354003906z M33.1879997253418,50 C33.1879997253418,48.6285400390625 34.3165397644043,47.5 35.6879997253418,47.5 C35.6879997253418,47.5 78.56300354003906,47.5 78.56300354003906,47.5 C79.93445587158203,47.5 81.06300354003906,48.6285400390625 81.06300354003906,50 C81.06300354003906,51.3714599609375 79.93445587158203,52.5 78.56300354003906,52.5 C78.56300354003906,52.5 35.6879997253418,52.5 35.6879997253418,52.5 C34.3165397644043,52.5 33.1879997253418,51.3714599609375 33.1879997253418,50 C33.1879997253418,50 33.1879997253418,50 33.1879997253418,50z M35.6879997253418,28.437999725341797 C34.3165397644043,28.437999725341797 33.1879997253418,29.566539764404297 33.1879997253418,30.937999725341797 C33.1879997253418,32.3094596862793 34.3165397644043,33.4379997253418 35.6879997253418,33.4379997253418 C35.6879997253418,33.4379997253418 78.56300354003906,33.4379997253418 78.56300354003906,33.4379997253418 C79.93445587158203,33.4379997253418 81.06300354003906,32.3094596862793 81.06300354003906,30.937999725341797 C81.06300354003906,29.566539764404297 79.93445587158203,28.437999725341797 78.56300354003906,28.437999725341797 C78.56300354003906,28.437999725341797 35.6879997253418,28.437999725341797 35.6879997253418,28.437999725341797 C35.6879997253418,28.437999725341797 35.6879997253418,28.437999725341797 35.6879997253418,28.437999725341797z M26.812999725341797,69.06199645996094 C26.812999725341797,71.22232055664062 25.035322189331055,73 22.875,73 C20.714677810668945,73 18.937000274658203,71.22232055664062 18.937000274658203,69.06199645996094 C18.971046447753906,66.92564392089844 20.737873077392578,65.18675231933594 22.874500274658203,65.18675231933594 C25.011127471923828,65.18675231933594 26.777952194213867,66.92564392089844 26.812000274658203,69.06199645996094 C26.812000274658203,69.06199645996094 26.812999725341797,69.06199645996094 26.812999725341797,69.06199645996094z M22.875,53.9379997253418 C25.035322189331055,53.9379997253418 26.812999725341797,52.16032409667969 26.812999725341797,50 C26.812999725341797,47.83967590332031 25.035322189331055,46.0620002746582 22.875,46.0620002746582 C20.714677810668945,46.0620002746582 18.937000274658203,47.83967590332031 18.937000274658203,50 C18.937000274658203,52.16032409667969 20.714677810668945,53.9379997253418 22.875,53.9379997253418 C22.875,53.9379997253418 22.875,53.9379997253418 22.875,53.9379997253418z M22.875,34.875 C25.058786392211914,34.9098014831543 26.875751495361328,33.12156295776367 26.875751495361328,30.9375 C26.875751495361328,28.753435134887695 25.058786392211914,26.96519660949707 22.875,27 C20.738643646240234,27.034046173095703 18.999752044677734,28.800872802734375 18.999752044677734,30.9375 C18.999752044677734,33.074127197265625 20.738643646240234,34.8409538269043 22.875,34.875 C22.875,34.875 22.875,34.875 22.875,34.875z"/></g></g></g></g></svg>