<svg xmlns="http://www.w3.org/2000/svg" xmlns:xlink="http://www.w3.org/1999/xlink" viewBox="0 0 512 512" width="512" height="512" style="width: 100%; height: 100%; transform: translate3d(0px, 0px, 0px);" preserveAspectRatio="xMidYMid meet"><defs><clipPath id="__lottie_element_2"><rect width="512" height="512" x="0" y="0"/></clipPath><clipPath id="__lottie_element_4"><path d="M0,0 L100,0 L100,100 L0,100z"/></clipPath></defs><g clip-path="url(#__lottie_element_2)"><g clip-path="url(#__lottie_element_4)" style="display: block;" transform="matrix(5.119999885559082,0,0,5.119999885559082,0,0)" opacity="1"><g style="display: block;" transform="matrix(1,0,0,1,0,0)" opacity="1"><g opacity="1" transform="matrix(1,0,0,1,0,0)"><path stroke-linecap="round" stroke-linejoin="round" fill-opacity="0" stroke="rgb(255,255,255)" stroke-opacity="1" stroke-width="5" d=" M41.75,43.125 C41.75,43.125 18.875,43.125 18.875,43.125 M39.5629997253418,56.96500015258789 C39.5629997253418,56.96500015258789 18.875,56.96500015258789 18.875,56.96500015258789 M55.375,70.375 C55.375,70.375 18.875,70.375 18.875,70.375 M65.40599822998047,56.96500015258789 C65.40599822998047,56.96500015258789 65.40599822998047,70.375 65.40599822998047,70.375 M65.40599822998047,56.96500015258789 C65.40599822998047,56.96500015258789 78.47200012207031,56.96500015258789 78.47200012207031,56.96500015258789 C81.45600128173828,56.96500015258789 83.81900024414062,54.31399917602539 82.6240005493164,51.58000183105469 C80.62840270996094,47.0229606628418 76.90740966796875,43.436500549316406 72.27999877929688,41.61000061035156 C72.27999877929688,41.61000061035156 72.0459976196289,33.374000549316406 72.0459976196289,33.374000549316406 C72.0368881225586,33.06032943725586 72.17593383789062,32.75999450683594 72.4209976196289,32.56399917602539 C72.4209976196289,32.56399917602539 78.69599914550781,27.549999237060547 78.69599914550781,27.549999237060547 C80.76399993896484,25.89699935913086 79.59600067138672,22.562000274658203 76.947998046875,22.562000274658203 C76.947998046875,22.562000274658203 53.8650016784668,22.562000274658203 53.8650016784668,22.562000274658203 C51.21699905395508,22.562000274658203 50.04800033569336,25.89699935913086 52.117000579833984,27.549999237060547 C52.117000579833984,27.549999237060547 58.391998291015625,32.56399917602539 58.391998291015625,32.56399917602539 C58.63706588745117,32.75999450683594 58.7761116027832,33.06032943725586 58.766998291015625,33.374000549316406 C58.766998291015625,33.374000549316406 58.53200149536133,41.61000061035156 58.53200149536133,41.61000061035156 C53.90459442138672,43.436500549316406 50.18359375,47.0229606628418 48.1879997253418,51.58000183105469 C46.99399948120117,54.31399917602539 49.356998443603516,56.96500015258789 52.34000015258789,56.96500015258789 C52.34000015258789,56.96500015258789 65.40599822998047,56.96500015258789 65.40599822998047,56.96500015258789 C65.40599822998047,56.96500015258789 65.40599822998047,56.96500015258789 65.40599822998047,56.96500015258789z"/></g></g></g></g></svg>