<svg xmlns="http://www.w3.org/2000/svg" xmlns:xlink="http://www.w3.org/1999/xlink" viewBox="0 0 512 512" width="512" height="512" preserveAspectRatio="xMidYMid meet" style="width: 100%; height: 100%; transform: translate3d(0px, 0px, 0px); content-visibility: visible;"><defs><clipPath id="__lottie_element_2"><rect width="512" height="512" x="0" y="0"/></clipPath><clipPath id="__lottie_element_4"><path d="M0,0 L100,0 L100,100 L0,100z"/></clipPath></defs><g clip-path="url(#__lottie_element_2)"><g clip-path="url(#__lottie_element_4)" transform="matrix(5.119999885559082,0,0,5.119999885559082,0,0)" opacity="1" style="display: block;"><g transform="matrix(1,0,0,1,0,0)" opacity="1" style="display: block;"><g opacity="1" transform="matrix(1,0,0,1,0,0)"><path stroke-linecap="round" stroke-linejoin="round" fill-opacity="0" stroke="rgb(255,255,255)" stroke-opacity="1" stroke-width="5" d=" M40.268001556396484,38.60499954223633 C40.268001556396484,38.60499954223633 21.084999084472656,38.60499954223633 21.084999084472656,38.60499954223633 C19.148000717163086,38.60499954223633 18.341999053955078,41.084999084472656 19.90999984741211,42.222999572753906 C19.90999984741211,42.222999572753906 35.42900085449219,53.49800109863281 35.42900085449219,53.49800109863281 C36.127899169921875,54.006080627441406 36.42212677001953,54.912261962890625 36.154998779296875,55.73400115966797 C36.154998779296875,55.73400115966797 30.226999282836914,73.97799682617188 30.226999282836914,73.97799682617188 C29.628999710083008,75.82099914550781 31.73699951171875,77.35299682617188 33.30500030517578,76.21499633789062 C33.30500030517578,76.21499633789062 48.82500076293945,64.93900299072266 48.82500076293945,64.93900299072266 C49.52389144897461,64.43160247802734 50.47610855102539,64.43160247802734 51.17499923706055,64.93900299072266 C51.17499923706055,64.93900299072266 66.69499969482422,76.21499633789062 66.69499969482422,76.21499633789062 C68.26200103759766,77.35299682617188 70.37100219726562,75.82099914550781 69.77200317382812,73.97799682617188 C69.77200317382812,73.97799682617188 63.845001220703125,55.73500061035156 63.845001220703125,55.73500061035156 C63.577392578125,54.912967681884766 63.87166976928711,54.006221771240234 64.57099914550781,53.49800109863281 C64.57099914550781,53.49800109863281 80.09100341796875,42.222999572753906 80.09100341796875,42.222999572753906 C81.65799713134766,41.08399963378906 80.85199737548828,38.60499954223633 78.91500091552734,38.60499954223633 C78.91500091552734,38.60499954223633 59.731998443603516,38.60499954223633 59.731998443603516,38.60499954223633 C58.867862701416016,38.60494613647461 58.09701919555664,38.04484939575195 57.83000183105469,37.222999572753906 C57.83000183105469,37.222999572753906 51.902000427246094,18.979999542236328 51.902000427246094,18.979999542236328 C51.303001403808594,17.13800048828125 48.696998596191406,17.13800048828125 48.097999572753906,18.979999542236328 C48.097999572753906,18.979999542236328 42.16999816894531,37.222999572753906 42.16999816894531,37.222999572753906 C41.90298080444336,38.04484939575195 41.132137298583984,38.60494613647461 40.268001556396484,38.60499954223633 C40.268001556396484,38.60499954223633 40.268001556396484,38.60499954223633 40.268001556396484,38.60499954223633z"/></g></g></g></g></svg>